# xmcd
#
# Track frame offsets: 
#        150
#        17580
#        36034
#        49836
#        86802
#        115812
#        135393
#        158160
#        180603
#        213090
#        235988
#
# Disc length: 3498 seconds
#
# Revision: 0
# Processed by: cddbd v1.5.2PL0 Copyright (c) Steve Scherf et al.
# Submitted via: ExactAudioCopy v0.99pb5
#
DISCID=870da80b
DTITLE=Various Artist - Acid - Mysterons Invade The Jackin' Zone [CD 2)
DYEAR=2013
DGENRE=Acid
TTITLE0=Acid Wash - Love Trak
TTITLE1=Devotion - Strength Of Bass
TTITLE2=Virgo - Go Wild Rhythm Trax No. 3
TTITLE3=The House Master Boyz - House Nation
TTITLE4=Cool McCool - World Turn Around
TTITLE5=Mr. Fingers - Washing Machine
TTITLE6=Rocky Jones - The Choice Of A New Generation
TTITLE7=Adonis - No Way Back
TTITLE8=The Unknown - Abstract Expressionism
TTITLE9=Mr. Fingers - The Juice
TTITLE10=Bizzy B. - The Night Calls
EXTD=
EXTT0=
EXTT1=
EXTT2=
EXTT3=
EXTT4=
EXTT5=
EXTT6=
EXTT7=
EXTT8=
EXTT9=
EXTT10=
PLAYORDER=
